<?xml version="1.0" standalone="no"?><!DOCTYPE svg PUBLIC "-//W3C//DTD SVG 1.1//EN" "http://www.w3.org/Graphics/SVG/1.1/DTD/svg11.dtd"><svg t="1717408476303" class="icon" viewBox="0 0 1024 1024" version="1.1" xmlns="http://www.w3.org/2000/svg" p-id="1456" xmlns:xlink="http://www.w3.org/1999/xlink" width="200" height="200"><path d="M538.112 38.4c-15.36-44.544-39.936-44.544-55.296 0l-84.992 250.88c-14.848 44.544-64 93.184-108.032 108.544L40.448 482.816c-44.544 15.36-44.544 39.936 0 55.296l247.808 86.016c44.544 15.36 93.184 64.512 108.544 108.544l86.528 251.392c15.36 44.544 39.936 44.544 55.296 0l84.48-249.856c14.848-44.544 63.488-93.184 108.032-108.544l252.928-86.528c44.544-15.36 44.544-39.936 0-54.784l-248.832-83.968c-44.544-14.848-93.184-63.488-108.544-108.032-1.536-0.512-88.576-253.952-88.576-253.952z" p-id="1457" fill="#da184d"></path></svg>